<svg xmlns="http://www.w3.org/2000/svg" viewBox="0 10 94.69999694824219 40.349998474121094" data-asc="0.92" width="94.69999694824219" height="40.349998474121094"><defs/><g fill="#000000"><g transform="translate(0, 0)"><path d="M1.70 50.35Q0.60 49.70 0.30 48.98Q0 48.25 0 47.75Q0 46.35 1.03 43.95Q2.05 41.55 3.78 38.48Q5.50 35.40 7.60 32.10Q5.75 31.95 4.45 31.90Q3.15 31.85 2.20 31.85L0.45 31.85Q1 30.40 2.38 29.82Q3.75 29.25 5.65 29.25Q6.50 29.25 7.40 29.35Q8.30 29.45 9.25 29.60Q11.80 25.75 14.47 22.13Q17.15 18.50 19.48 15.67Q21.80 12.85 23.35 11.40Q24.80 10 25.75 10Q26.30 10 26.98 10.42Q27.65 10.85 28.40 11.60Q27.90 12 27.13 13.73Q26.35 15.45 25.48 18.05Q24.60 20.65 23.75 23.75Q22.90 26.85 22.18 30.07Q21.45 33.30 21.03 36.20Q20.60 39.10 20.60 41.30Q20.60 43.20 21.03 44.25Q21.45 45.30 22.45 45.30Q23.75 45.30 25.40 43.50Q27.05 41.70 29.00 37.90L29.50 38.40Q28.00 42.40 25.68 44.95Q23.35 47.50 20.85 47.50Q18.80 47.50 17.88 45.67Q16.95 43.85 16.95 40.80Q16.95 39.20 17.18 37.30Q17.40 35.40 17.80 33.35Q15.60 33 13.78 32.77Q11.95 32.55 10.40 32.35Q8.05 36.70 5.83 41.30Q3.60 45.90 1.70 50.35M18.15 31.60Q18.90 28.30 19.90 24.92Q20.90 21.55 22.03 18.50Q23.15 15.45 24.15 13.15Q22.60 14.10 20.58 16.52Q18.55 18.95 16.30 22.42Q14.05 25.90 11.70 30.05Q13.40 30.40 15.08 30.82Q16.75 31.25 18.15 31.60ZM33.35 48.80Q30.95 48.80 29.35 47.20Q27.75 45.60 27.75 42.40Q27.75 39.90 28.73 37.52Q29.70 35.15 31.30 33.25Q32.90 31.35 34.85 30.23Q36.80 29.10 38.70 29.10Q40.75 29.10 41.50 30.30Q42.25 31.50 42.25 32.80Q42.25 34.25 41.58 35.35Q40.90 36.45 39.75 36.45Q38.90 36.45 38.30 35.70Q39.05 35.30 39.60 34.08Q40.15 32.85 40.15 31.75Q40.15 31.15 39.93 30.82Q39.70 30.50 39.05 30.50Q37.70 30.50 36.28 31.70Q34.85 32.90 33.63 34.80Q32.40 36.70 31.63 38.80Q30.85 40.90 30.85 42.75Q30.85 44.30 31.60 45.60Q32.35 46.90 34.50 46.90Q36.50 46.90 38.53 45.80Q40.55 44.70 42.30 42.65Q44.05 40.60 45.10 37.85L45.75 38.35Q44.60 41.35 42.60 43.73Q40.60 46.10 38.20 47.45Q35.80 48.80 33.35 48.80ZM69.35 47.55Q67.60 47.55 66.80 46.48Q66 45.40 66 43.90Q66 42.65 66.38 41.40Q66.75 40.15 67.13 38.95Q67.50 37.75 67.50 36.80Q67.50 35.80 67.05 35.40Q66.60 35 66.05 35Q64.80 35 63.33 36.95Q61.85 38.90 59.50 42.45Q58.70 43.65 58.15 44.88Q57.60 46.10 57.10 47.10Q56.70 47.10 56.10 47Q55.50 46.90 55.03 46.67Q54.55 46.45 54.55 46.10Q54.55 45.75 55.03 44.42Q55.50 43.10 56.13 41.33Q56.75 39.55 57.23 37.73Q57.70 35.90 57.70 34.60Q57.70 33.75 57.43 33.23Q57.15 32.70 56.45 32.70Q55.35 32.70 53.80 34.02Q52.25 35.35 50.60 37.50Q48.95 39.65 47.48 42.23Q46.00 44.80 45.10 47.35Q44.65 47.35 44.00 47.20Q43.35 47.05 42.88 46.80Q42.40 46.55 42.40 46.30Q42.40 46 42.93 44.52Q43.45 43.05 44.13 40.98Q44.80 38.90 45.33 36.75Q45.85 34.60 45.85 32.95Q46.15 32.60 46.80 32.25Q47.45 31.90 48.15 31.90Q48.85 31.90 49.18 32.25Q49.50 32.60 49.50 33.20Q49.50 33.85 49.13 35.42Q48.75 37 48.20 38.90Q49.20 37.30 50.48 35.63Q51.75 33.95 53.15 32.55Q54.55 31.15 55.98 30.27Q57.40 29.40 58.75 29.40Q60.30 29.40 60.88 30.52Q61.45 31.65 61.45 33.20Q61.45 34.45 61.18 35.83Q60.90 37.20 60.55 38.38Q60.20 39.55 59.90 40.25Q60.95 38.35 62.23 36.58Q63.50 34.80 65 33.67Q66.50 32.55 68.20 32.55Q69.80 32.55 70.43 33.50Q71.05 34.45 71.05 35.75Q71.05 37.05 70.60 38.60Q70.15 40.15 69.68 41.60Q69.20 43.05 69.20 44.10Q69.20 44.75 69.53 45.27Q69.85 45.80 70.70 45.80Q72.10 45.80 73.33 44.52Q74.55 43.25 75.60 41.42Q76.65 39.60 77.40 37.90L78 38.60Q77.20 40.70 75.95 42.77Q74.70 44.85 73.03 46.20Q71.35 47.55 69.35 47.55ZM81.85 48.20Q78.80 48.20 77.28 46.52Q75.75 44.85 75.75 42.40Q75.75 40.15 76.88 37.65Q78.00 35.15 79.88 32.95Q81.75 30.75 84.00 29.38Q86.25 28 88.45 28Q89.60 28 90.58 28.60Q91.55 29.20 91.55 31.05Q91.55 32.95 90.43 34.63Q89.30 36.30 87.48 37.60Q85.65 38.90 83.48 39.73Q81.30 40.55 79.15 40.75Q79.05 41.25 79.00 41.70Q78.95 42.15 78.95 42.55Q78.95 43.30 79.13 44.05Q79.30 44.80 79.75 45.42Q80.20 46.05 80.98 46.40Q81.75 46.75 82.90 46.75Q85.05 46.75 87.15 45.52Q89.25 44.30 91.05 42.30Q92.85 40.30 94.10 37.90L94.70 38.35Q93.35 41.35 91.28 43.55Q89.20 45.75 86.78 46.98Q84.35 48.20 81.85 48.20M79.40 39.80Q80.75 39.35 82.45 38.48Q84.15 37.60 85.73 36.40Q87.30 35.20 88.33 33.75Q89.35 32.30 89.35 30.70Q89.35 30.15 89.15 29.85Q88.95 29.55 88.30 29.55Q87.10 29.55 85.75 30.48Q84.40 31.40 83.15 32.90Q81.90 34.40 80.90 36.20Q79.90 38 79.40 39.80Z"/></g></g></svg>